<?xml version="1.0" encoding="UTF-8"?>
<svg id="Layer_1" xmlns="http://www.w3.org/2000/svg" version="1.1" viewBox="0 0 1030.53 272.22">
  <!-- Generator: Adobe Illustrator 30.3.0, SVG Export Plug-In . SVG Version: 2.1.3 Build 182)  -->
  <defs>
    <style>
      .st0 {
        fill: #95b8da;
      }

      .st1 {
        fill: #e12628;
      }

      .st2 {
        fill: #1863b4;
      }

      .st3 {
        fill: #fcfcfc;
      }

      .st4 {
        fill: #060505;
      }

      .st5 {
        fill: #fcda24;
      }
    </style>
  </defs>
  <path class="st4" d="M658.12,254.34c-8.01.91-13.38-2.64-16.89-9.22l-22.73-42.64-7.35,38.51c-1.26,6.61-6.16,10.13-12.98,10.82-17.38-1.28-35.25,1.6-52.29-1.11-4.62-.73-6.42.71-10.87.76l-153.2,1.85c-5.08.06-8.86.17-12.86-3.21-1.49-.34-3.74.78-5.74.78l-108.87-.31c-4.09-.01-6.85.07-10.74.31-16.64,1.01-33.27.82-50.01.12-8.57-.36-12.76-10.14-11.39-18.67-27.67,21.12-71.18,25.35-104.95,25.24-17.11-.05-33.86.12-50.56-3.33-8.56-1.77-11.77-11.44-10.46-19.28l17.58-104.67,14.94-81.02c1.01-5.46,6.77-7.23,11.59-7.97,27.71-4.24,54.85-7.54,82.89-5.86,24.18,1.44,50.03,6.06,65.03,27.73,3.3-7.84,6.96-12.66,12.95-17.4,14.51-9.87,34.46-12.68,50.39-3.87,18.12,10.01,21.54,33.66,9.27,50.38l112.53.19c-3.46-8.42-15.93-28.72-7.4-35.89,24.29-20.44,53.39-34.11,84.68-39.66,37.13-6.58,80.24-.16,97.24,37.82,2.31-5.79,2.7-13.04,8.7-14.02,29.4-4.8,71.4-8.07,100.19-1.94,16.46,3.51,31.02,10.96,41.82,24.95,5.18-13.63,16.56-22.1,30.52-24.57,9.75-1.72,19.7-2.06,28.4,2.71,8.78,3.87,14.19,10.95,16.71,19.9,3.87,13.78-.35,27.61-12.22,36.24,1.44,2.48,2.42,4.28,3.71,7.22,26.6-19.76,68.87-20.76,98.82-7.31,5.83,2.61,8.45,7.85,9.92,14.47,23.03-21.14,65.38-29.35,93.13-14.63,20.11,10.67,30.68,32.52,25.76,54.75-2.8,12.67-9.71,22.98-19.68,31.27.88,2.87,3.17,4.39,3.71,6.9l7.33,33.5c1.46,6.67-1.85,12.27-7.86,15.39-34.84,18.02-96.44,21.63-121.57-16.58-24.78,36.09-77.15,35.58-112.76,21.37-2.84,3.66-6.13,5.34-10.29,5.37l-37.96.32c-3.84.03-7.6-1.21-11.22-.8l-44.95,5.1ZM375.21,235.58l23.2-.41,132.45-1.1,7.99-42.98-77.61.48c30.91-19.42,53.86-32.17,76.75-58.81,21.77-24.85,35.77-68.71,6.82-93.12-22.21-18.72-56.5-17.76-83.47-11.4-10.88,2.56-20.63,6.94-31.15,10.88-13.14,6.47-25.33,13.76-37.15,22.8l17.7,38.59c18.46-13.69,43.77-29.99,67.57-23.59,8.61,2.31,12.65,9.5,12.03,18.25-1.35,18.87-16.52,34.96-29.91,47.09-17.89,16.2-37.49,29.38-58.13,41.81l-18.76,11.3-8.33,40.21ZM27.38,227.92c-.29,2.81-1.6,5.42-1.03,8.95,35.32,3.53,83.67,4.98,117.42-5.29,27.86-8.48,51.23-30.05,50.78-59.56-.3-19.98-11.64-29.34-30.04-34.75,9.6-5.57,19.55-10,26.96-19.13,5.22-6.43,10.86-13.86,11.1-22.02,5.39-14.47-.13-30.02-13.56-38.84-10.36-6.8-21.9-10.36-34.75-11.5-32-2.85-63.87-.48-96.01,5.54l-29.85,167.56c-.64,3.58-.73,6.17-1.02,9.03ZM550.28,214.88c-.72-.36-.76.77-.88,1.22-.41,1.58.46,3.6-.09,5.12-1.41,3.91-1.74,8.09-2.71,12.7l51.6-.19,12.06-66.8c1.89.99,3.21,2.7,3.99,4.12l35.65,64.3c1.12,2.02,5.15.16,6.48.42l46.78-4.87-38.31-69.1c33.58-9.25,54.3-40.33,51.94-73.68-.55-7.79-3.34-13.57-7.3-19.12-4.32-6.05-9.2-11.04-16.51-14.5-11.05-5.23-22.71-8.24-35.12-8.88-29.12-1.51-49.29.64-78.22,3.94l-19.89,111.96c-2.04,11.47-3.78,22-5.84,33.33l-3.63,20.04ZM228.23,85.96l.97.2c.15.53.65.64,1.08.83,17.62,7.65,44.87-2.71,45.03-21.86.06-7.3-4.17-13.67-11.85-16.41-15.12-5.4-38.17-.37-44.05,15.31-3.37,8.99,0,20.13,8.83,21.93ZM738.04,85.18c9.59,5.96,22.2,4.68,32.56-.6,9.62-4.9,15.44-16.29,10.7-26.51-5.81-12.53-29.02-12.96-43.2-4.12-7.62,4.75-11.62,13.78-9.09,22.41,1.31,4.48,5.34,7.17,9.03,8.82ZM374.08,185.81c3.95,1.5,5.28,1.36,8.51-.58,30.25-18.24,66.11-39.73,88.26-67.52,3.77-4.73,11.98-18.42,7.87-22.54-.62-.63-1.98-.98-3.41-1.27-17.39-3.46-41.53,9.33-54.31,20.85-5.29,4.77-12.6,3.89-17.77-1.28l-5.91,24.46c-1.46,6.05-3.73,10.05-8.16,14.09-11.68,10.66-23.14,21.15-34.63,32.78,6.9,1.71,13.51-1.28,19.55,1.02ZM810.12,180.99l1.06.18c.11.57.62.76,1.08.97.93.42,1.89.81,2.92.94,2.7,2.96,10.58,3.67,10.32,10.47-.11,2.83-2.2,6.23-5.72,7.24-14.99,4.3-30.19.81-44.7-6.61l-14.9,28.93c-1.16,2.24,3.1,1.94,3.95,2.86,1.16,1.24,2.53,2.04,4.56,2.78,17.21,6.22,35.24,7.6,53.59,5.42,29.75-3.54,54.74-27.12,46.96-57.65-.71-2.77-2.68-3.87-3.82-5.58-4.88-7.31-12.72-11.96-21.2-15.63l-18.72-8.11c-1.39-2.16-3.71-3.83-3.21-6.59.43-2.37,2.02-4.72,4.71-5.98,12.73-5.94,26.74-1.08,40.8,3.02l11.82-25.58c.66-1.42.61-2.85.61-3.97.09-.2.62-.44.5-.63-.21-.33-.71-1.19-1.45-1.46-21.52-7.91-45.15-9.34-67.38-3.17-23.16,6.43-42.04,28.33-34.89,51.79,3.04,9.95,11.42,16.92,20.36,21.17,4.51,2.14,8.36,4.44,12.75,5.2ZM882.27,208.02c6.32,12.49,20.29,20.63,34.04,23.97,24.75,6,50.2,1.75,72.92-8.73,2.65-1.22,3.5-3.2,2.91-5.83l-5.08-22.53c-.24-1.07-.47-2.21-1.17-3.48-15.74,8.55-36.48,13.58-53.6,8.38-5.58-3.53-9.85-9.03-9.74-16.43,22.82.14,50.82-3.38,67.62-19.41,13.03-12.43,15.72-32.96,5.08-46.87-5.4-7.06-12.26-11.9-21.82-14.25-15.78-3.88-32.95-2.82-48.74,2.89-41.07,14.85-60.45,66.64-42.43,102.31ZM280.16,138.08l40.06.46c.64,0,1.46-.02,1.72.17.23.17.04.87.12,1.15-1.06.28-1.89.96-3.01,2.01l-59.32,55.55-5.54,28.69c-.41,2.13-1.4,4.21-.75,7.29l110.28-.36c2.22-12.89,5.95-24.89,6.44-37.13.02-.52-1-1.19-1.92-1.18l-49.87.33c.2-2.05,2.03-2.75,3.72-4.31l61.57-56.91c1.7-10.25,5.06-19.25,5.74-28.85.04-.56.61-1.06.5-1.53-.27-1.16-1.25-1.44-2.71-1.43l-107.13.25-6.74,35.53c2.6,1.14,4.75.24,6.83.27ZM194.75,222.95c-.89,3.34-1.61,6.76-1.43,10.64l47.46.04,24.34-129.3c-15.18-2.46-31.2-.21-48-1.1l-6.06,31.62-16.32,88.11ZM707.55,222.14c-.34,2.98-1.01,6.03.17,9.68l43.52-.07,21.8-125.92c.06-.36.02-.86-.24-.97-.6-.25-1.58-.41-2.47-.41l-43.12-.21-9.9,54.71c-3.82,21.11-7.24,41.56-9.77,63.19ZM198.63,149.74l2.23-16.5c-2.67,3-5.67,5.07-7.92,8.47,2.72,2.49,3.24,4.9,5.69,8.02ZM545.59,184.42l7.61-43.84c-7.7,8.64-14.07,16.83-22.56,23.81l-20.8,17.12c9.17,1.84,30.49-1.94,35.75,2.91ZM288.72,156.92c-6.94-2.33-10.47.54-18.34-2.07l-3.43,22.57,21.77-20.5ZM699.61,203.13l7.72-46.43c-7.47,7.63-15.1,12.67-24.4,17.02l16.69,29.41ZM791.36,190.58c-6.11-4.42-11.46-7.51-16.04-12.95-1.18,2.58-1.33,4.61-1.45,7.33,7.25.38,12.33,5.26,17.49,5.63Z"/>
  <path class="st2" d="M995.25,117.07c10.64,13.91,7.95,34.44-5.08,46.87-16.8,16.02-44.8,19.55-67.62,19.41-.12,7.4,4.15,12.9,9.74,16.43.64.72.94,2.29,2.65,2.7,16.37,3.94,33.59,1.48,48.28-6.74,1.42-.8,2.66-.94,3.84-.86l5.08,22.53c.59,2.63-.25,4.61-2.91,5.83-22.72,10.48-48.17,14.73-72.92,8.73-13.75-3.33-27.73-11.47-34.04-23.97.45.01,1.25.28,1.4-.08.24-.59,1.19-2.05.92-3.12-7.64-30.33-.86-62.43,23.73-82.85,15.41-12.8,35.3-17.39,55-15.54,9.29.87,17.74,3.08,25.48,7.98,2.16,1.36,4.18,2.51,6.45,2.67ZM926.26,160.91c11.75,3.06,44.54-3.1,39.41-22.77-.8-3.08-3.3-2.75-6.42-4.15-7-3.14-14.73-2.01-21.51,2.83-7.17,5.12-11.26,13.46-13.48,22.14-.28,1.11.82,1.92,2,1.95Z"/>
  <path class="st2" d="M880.23,108.09c0,1.12.05,2.55-.61,3.97l-11.82,25.58c-14.07-4.11-28.07-8.97-40.8-3.02-2.69,1.26-4.28,3.6-4.71,5.98-.5,2.76,1.82,4.43,3.21,6.59,1.98,3.07,12.38,8.08,15.94,9.44,9.09,3.46,16.73,8.5,23.98,14.3,1.14,1.71,3.12,2.81,3.82,5.58,7.79,30.53-17.21,54.11-46.96,57.65-18.35,2.18-36.38.8-53.59-5.42-2.03-.73-3.41-1.53-4.56-2.78l12.02-22.87c.78-1.49,1.68-2.89,2.69-3.25,3.46-1.23,19.3,11.4,43,3.57,6.65-2.2,6.7-12.32,6.7-12.33-1.99-4.25-10.39-7.63-13.36-7.99-1.02-.13-1.98-.52-2.92-.94.1-.61-.59-.89-1.08-.97l-1.06-.18c-.58-1.85-2.34-2.31-4.16-3.59-7.97-5.62-16.64-11.78-21.34-20.95-5.69-11.1-1.37-25.07,7.03-34.04,20.29-21.67,53.39-21.17,80.46-15.38,3,.64,5.54,1.2,8.12,1.07Z"/>
  <path class="st2" d="M773.04,105.83l-21.8,125.92-43.52.07c-1.18-3.65-.51-6.71-.17-9.68,1.7.14,2.11,2.07,3.69,3.61l6.4-35.53,14.89-81.41,35.29-.67c1.74-.03,3.16-4.14,5.21-2.3Z"/>
  <path class="st2" d="M781.3,58.08c4.74,10.22-1.08,21.61-10.7,26.51-10.36,5.28-22.98,6.55-32.56.6-.49-1.5-1.52-2.93-2.41-4.59-4.98-9.28-1.35-19.59,8.09-24.46,12.03-6.21,26.25-4.86,37.59,1.94Z"/>
  <path class="st0" d="M995.25,117.07c-2.27-.15-4.3-1.3-6.45-2.67-7.74-4.9-16.19-7.1-25.48-7.98-19.7-1.85-39.58,2.74-55,15.54-24.59,20.42-31.36,52.52-23.73,82.85.27,1.07-.68,2.53-.92,3.12-.15.36-.95.1-1.4.08-18.03-35.67,1.35-87.46,42.43-102.31,15.79-5.71,32.95-6.77,48.74-2.89,9.56,2.35,16.42,7.19,21.82,14.25Z"/>
  <path class="st0" d="M880.23,108.09c-2.59.13-5.13-.43-8.12-1.07-27.07-5.79-60.16-6.29-80.46,15.38-8.4,8.97-12.72,22.94-7.03,34.04,4.7,9.17,13.37,15.33,21.34,20.95,1.82,1.28,3.59,1.74,4.16,3.59-4.39-.76-8.24-3.06-12.75-5.2-8.94-4.24-17.33-11.22-20.36-21.17-7.16-23.46,11.73-45.37,34.89-51.79,22.24-6.17,45.86-4.74,67.38,3.17.74.27,1.24,1.13,1.45,1.46.12.19-.41.43-.5.63Z"/>
  <path class="st0" d="M773.04,105.83c-2.06-1.84-3.48,2.27-5.21,2.3l-35.29.67-14.89,81.41-6.4,35.53c-1.58-1.54-1.99-3.47-3.69-3.61,2.53-21.63,5.95-42.08,9.77-63.19l9.9-54.71,43.12.21c.88,0,1.86.17,2.47.41.26.11.3.61.24.97Z"/>
  <path class="st1" d="M375.21,235.58l8.33-40.21,18.76-11.3c20.64-12.43,40.24-25.61,58.13-41.81,13.4-12.13,28.57-28.22,29.91-47.09.62-8.75-3.42-15.93-12.03-18.25-23.8-6.4-49.11,9.9-67.57,23.59l-17.7-38.59c11.82-9.04,24.01-16.33,37.15-22.8,10.52-3.94,20.27-8.31,31.15-10.88,26.97-6.36,61.25-7.33,83.47,11.4,28.96,24.41,14.96,68.27-6.82,93.12-22.89,26.64-45.84,39.39-76.75,58.81l77.61-.48-7.99,42.98-132.45,1.1-23.2.41Z"/>
  <path class="st0" d="M764.13,225.97c-.85-.92-5.11-.61-3.95-2.86l14.9-28.93c14.51,7.42,29.71,10.92,44.7,6.61,3.52-1.01,5.61-4.41,5.72-7.24.26-6.79-7.61-7.51-10.32-10.47,2.97.37,11.38,3.74,13.36,7.99,0,0-.05,10.13-6.7,12.33-23.71,7.83-39.55-4.8-43-3.57-1.01.36-1.91,1.77-2.69,3.25l-12.02,22.87Z"/>
  <path class="st0" d="M781.3,58.08c-11.33-6.81-25.56-8.15-37.59-1.94-9.45,4.87-13.07,15.18-8.09,24.46.89,1.66,1.92,3.09,2.41,4.59-3.68-1.65-7.72-4.34-9.03-8.82-2.52-8.63,1.47-17.66,9.09-22.41,14.18-8.84,37.39-8.41,43.2,4.12Z"/>
  <path class="st0" d="M987.05,194.88c-1.18-.08-2.42.07-3.84.86-14.69,8.22-31.92,10.67-48.28,6.74-1.7-.41-2.01-1.98-2.65-2.7,17.12,5.21,37.85.18,53.6-8.38.7,1.27.93,2.42,1.17,3.48Z"/>
  <path class="st0" d="M865.42,170.93c-7.26-5.81-14.89-10.84-23.98-14.3-3.56-1.36-13.96-6.36-15.94-9.44l18.72,8.11c8.48,3.67,16.31,8.33,21.2,15.63Z"/>
  <path class="st0" d="M812.27,182.14c-.47-.21-.97-.4-1.08-.97.49.08,1.18.36,1.08.97Z"/>
  <path class="st4" d="M959.26,133.99c2.46,2.08,3.8,5.18,2.86,8.89-3.71,14.57-24.22,16.66-35.85,18.03-1.17-.03-2.28-.84-2-1.95,2.22-8.68,6.31-17.02,13.48-22.14,6.79-4.85,14.51-5.98,21.51-2.83Z"/>
  <path class="st0" d="M926.26,160.91c11.63-1.38,32.14-3.46,35.85-18.03.94-3.71-.4-6.81-2.86-8.89,3.12,1.4,5.62,1.07,6.42,4.15,5.13,19.68-27.66,25.83-39.41,22.77Z"/>
  <path class="st5" d="M389.41,104.98c-.68,9.6-4.04,18.6-5.74,28.85l-61.57,56.91c-1.7,1.57-3.53,2.26-3.72,4.31-.08.78-1.05,1.54-.71,2.36,1.12,2.74,15.1,1.13,23.04,1.97,9.05.96,17.96.19,26.99.29,1.19-1.59,1.44-2.9,2.47-3.77-.49,12.24-4.22,24.24-6.44,37.13l-110.28.36c-.64-3.08.34-5.16.75-7.29,1.03.07,2.15.1,3.17-.41,2.07-1.03,5.29-20.78,7.31-24.24,10.76-12.41,23.26-22.53,35.08-33.89,8.85-8.51,17.22-16.57,26.61-24.39,4.26-3.55-3.67-.26-4.63-1.51-.3-.39.49-1.28.33-1.82-.09-.27.11-.97-.12-1.15-.26-.19-1.08-.17-1.72-.17l-40.06-.46c-.38-7.31,3.57-21.69,5.65-30.94l99.98-.17c.51-.74,1.24-1.9,1.59-2.24.56-.54,1.72-1.12,2.02.25Z"/>
  <path class="st5" d="M265.12,104.33l-24.34,129.3-47.46-.04c-.18-3.88.54-7.3,1.43-10.64,1.51-.13,4.71-.29,5.06-2.58.53-3.42,1.65-6.39,2.33-9.69l5.1-24.89,15.05-77.64,38.42-.42c1.26-1.58,2.19-4.53,4.41-3.4Z"/>
  <path class="st5" d="M275.31,65.14c-.16,19.15-27.41,29.51-45.03,21.86-.28-.36-.63-.74-1.08-.83l-.97-.2c-2.38-6.49-7.97-13.29-2.56-22.42,8.73-14.72,35.89-16.64,48.04-2.12.81.96.1,3.53,1.6,3.71Z"/>
  <path class="st3" d="M265.12,104.33c-2.23-1.13-3.15,1.82-4.41,3.4l-38.42.42-15.05,77.64-5.1,24.89c-.68,3.3-1.81,6.28-2.33,9.69-.35,2.29-3.55,2.45-5.06,2.58l16.32-88.11,6.06-31.62c16.8.9,32.82-1.35,48,1.1Z"/>
  <path class="st3" d="M389.41,104.98c-.3-1.37-1.46-.79-2.02-.25-.35.33-1.08,1.5-1.59,2.24l-99.98.17c-2.09,9.24-6.04,23.63-5.65,30.94-2.08-.02-4.23.87-6.83-.27l6.74-35.53,107.13-.25c1.47,0,2.44.28,2.71,1.43.11.47-.46.97-.5,1.53Z"/>
  <path class="st3" d="M254.2,226.11l5.54-28.69,59.32-55.55c1.12-1.04,1.95-1.73,3.01-2.01.17.53-.63,1.42-.33,1.82.96,1.25,8.89-2.04,4.63,1.51-9.39,7.83-17.75,15.88-26.61,24.39-11.82,11.36-24.33,21.48-35.08,33.89-2.02,3.46-5.24,23.21-7.31,24.24-1.02.51-2.14.48-3.17.41Z"/>
  <path class="st3" d="M275.31,65.14c-1.49-.18-.79-2.75-1.6-3.71-12.14-14.52-39.31-12.6-48.04,2.12-5.41,9.13.18,15.92,2.56,22.42-8.83-1.8-12.2-12.94-8.83-21.93,5.88-15.68,28.93-20.71,44.05-15.31,7.67,2.74,11.91,9.11,11.85,16.41Z"/>
  <path class="st3" d="M370.17,195.92c-1.04.87-1.28,2.19-2.47,3.77-9.03-.11-17.95.66-26.99-.29-7.94-.84-21.92.77-23.04-1.97-.33-.82.64-1.58.71-2.36l49.87-.33c.92,0,1.94.66,1.92,1.18Z"/>
  <path class="st3" d="M230.28,86.99c-.44-.19-.93-.3-1.08-.83.45.09.8.47,1.08.83Z"/>
  <path class="st5" d="M202.56,96.13c-.23,8.16-5.88,15.58-11.1,22.02-7.41,9.13-17.36,13.56-26.96,19.13-1.03-.23-2.05-.61-2.42.75,2.26,2.52,4.6,3.63,7.29,4.78,11.02,4.68,20.01,13.27,23.36,24.96.5,1.75.17,3.71,1.81,4.26.45,29.51-22.92,51.08-50.78,59.56-33.75,10.28-82.1,8.82-117.42,5.29-.56-3.53.74-6.15,1.03-8.95,1.64-.07,3.25.89,5.25.53,1.71-5.96,2.05-11.82,3.19-17.83l9.37-49.45,19.39-103.86c28.61-4.79,56.36-6.84,85.17-4.88,11.34.77,21.98,2.93,31.79,8.14,17.2,9.14,17.97,18.94,21.04,35.56ZM101.44,124.05c.03.72.2,1.43.48,1.89,1.56,2.54,30.54,2.96,43.36-7.77,5.65-4.73,10.2-11.22,9.32-18.34-.57-4.6-2.1-9.8-7.39-9.7-9.47-7.67-28.21-6.1-39.94-4.27l-6.44,34.77c-.22,1.21-.1,2.25.61,3.42ZM86.51,200.17c-.17,1.54.89,2.45,2.76,2.73,18.29,2.76,46.9,1.11,55.16-18.23,2.95-6.9,1.14-12.4-4.42-16.63-4.48-3.42-8.41-6.08-14.94-6.94-10.26-1.35-20.74-.68-31.38,0l-7.19,39.07Z"/>
  <path class="st3" d="M202.56,96.13c-3.06-16.61-3.83-26.42-21.04-35.56-9.8-5.21-20.44-7.36-31.79-8.14-28.81-1.96-56.55.09-85.17,4.88l-19.39,103.86-9.37,49.45c-1.14,6.02-1.47,11.87-3.19,17.83-2,.36-3.61-.6-5.25-.53.29-2.85.38-5.45,1.02-9.03L58.24,51.33c32.15-6.01,64.02-8.38,96.01-5.54,12.84,1.14,24.39,4.7,34.75,11.5,13.43,8.82,18.95,24.37,13.56,38.84Z"/>
  <path class="st3" d="M164.5,137.27c18.4,5.41,29.74,14.77,30.04,34.75-1.64-.55-1.31-2.51-1.81-4.26-3.35-11.69-12.34-20.28-23.36-24.96-2.69-1.14-5.03-2.26-7.29-4.78.36-1.36,1.38-.98,2.42-.75Z"/>
  <path class="st4" d="M140.02,168.04c1.83,4.96,2.3,10.29-.29,15.25-10.01,19.16-34.96,16.73-53.22,16.89l7.19-39.07c10.64-.69,21.12-1.36,31.38,0,6.53.86,10.47,3.53,14.94,6.94ZM128.6,180.85c-3.95-3.45-18.81-2.2-24.24-1.89-.71,3.93-1.49,7.12-1.16,10.78,7.18-1.49,21.94-1.65,25.39-8.89Z"/>
  <path class="st4" d="M147.22,90.13c3.11,5.43,2.77,11.66-.35,17.57-7.96,15.06-31.16,15.21-45.42,16.35-.71-1.17-.83-2.22-.61-3.42l6.44-34.77c11.73-1.84,30.47-3.41,39.94,4.27ZM136.68,104.21c-6.87-2.03-12.67-1.21-18.43-.57-.28,3.71-1.51,5.87-1.21,9.13,7.58-.95,15.14-2.47,19.63-8.56Z"/>
  <path class="st3" d="M101.44,124.05c14.26-1.15,37.47-1.29,45.42-16.35,3.12-5.9,3.46-12.14.35-17.57,5.29-.1,6.81,5.09,7.39,9.7.89,7.12-3.67,13.61-9.32,18.34-12.82,10.73-41.8,10.31-43.36,7.77-.28-.46-.45-1.16-.48-1.89Z"/>
  <path class="st3" d="M86.51,200.17c18.27-.16,43.21,2.27,53.22-16.89,2.59-4.96,2.11-10.29.29-15.25,5.55,4.24,7.36,9.74,4.42,16.63-8.26,19.34-36.87,20.98-55.16,18.23-1.87-.28-2.93-1.19-2.76-2.73Z"/>
  <path class="st2" d="M709.48,69c3.97,5.56,6.75,11.33,7.3,19.12,2.36,33.36-18.35,64.44-51.94,73.68l38.31,69.1-46.78,4.87c-1.36-5.46-5.12-9.84-8.02-15.06-7.72-13.91-14.92-27.56-23.6-40.95-3.29-5.08,1.05-3.98-10.51-8.71-.78-1.41-2.1-3.13-3.99-4.12l-12.06,66.8-51.6.19c.97-4.62,1.3-8.79,2.71-12.7l4.76,4.86,8.77-47.29,7.58-40.47,14.98-83.24c30.98-3.85,70.77-7.68,100.52,1.13,8.89,2.85,16.34,7.68,23.57,12.78ZM619.47,135.34c.29,1.26,1.29,1.92,2.99,2.24,14.2,2.69,29.22-.45,39.78-10.45,8.06-7.63,11.89-18.69,8.96-29.09-1.04-3.7-3.68-7.16-7.78-7.1-8.65-7.47-26.36-5.9-37.95-4.53l-8.39,45.25c-.18.97-.41,1.77-.04,2.32.4.6,1.08.88,2.43,1.36Z"/>
  <path class="st0" d="M709.48,69c-7.23-5.1-14.68-9.93-23.57-12.78-29.75-8.81-69.54-4.98-100.52-1.13l-14.98,83.24-7.58,40.47-8.77,47.29-4.76-4.86c.55-1.53-.32-3.55.09-5.12.76.42.79-.73.88-1.22l3.63-20.04c2.05-11.33,3.8-21.85,5.84-33.33l19.89-111.96c28.93-3.3,49.1-5.45,78.22-3.94,12.41.64,24.07,3.66,35.12,8.88,7.31,3.46,12.19,8.45,16.51,14.5Z"/>
  <path class="st0" d="M656.37,235.77c-1.32-.26-5.35,1.61-6.48-.42l-35.65-64.3c11.56,4.73,7.21,3.63,10.51,8.71,8.68,13.38,15.87,27.04,23.6,40.95,2.9,5.23,6.66,9.6,8.02,15.06Z"/>
  <path class="st2" d="M549.39,216.1c.12-.45.16-1.58.88-1.22-.09.49-.12,1.64-.88,1.22Z"/>
  <path class="st4" d="M663.43,90.95c2.56,2.95,3.66,6.67,3.53,11.14-.44,15.63-12.06,28.3-27.39,31.24-6.96,1.33-13.51,1.68-20.09,2-1.36-.47-2.03-.75-2.43-1.36-.37-.54-.14-1.35.04-2.32l8.39-45.25c11.59-1.37,29.3-2.93,37.95,4.53ZM656.13,106.11c-4.11-3.85-14.39-2.44-19.27-2.42l-3.84,20.45c11.44-1.23,21.02-6.82,23.11-18.03Z"/>
  <path class="st0" d="M619.47,135.34c6.58-.33,13.13-.67,20.09-2,15.33-2.94,26.95-15.61,27.39-31.24.13-4.47-.97-8.19-3.53-11.14,4.1-.07,6.73,3.4,7.78,7.1,2.93,10.39-.89,21.45-8.96,29.09-10.56,9.99-25.58,13.14-39.78,10.45-1.7-.32-2.7-.98-2.99-2.24Z"/>
</svg>